<?xml version="1.0" standalone="no"?>
<!DOCTYPE svg PUBLIC "-//W3C//DTD SVG 20010904//EN"
 "http://www.w3.org/TR/2001/REC-SVG-20010904/DTD/svg10.dtd">
<svg version="1.0" xmlns="http://www.w3.org/2000/svg"
 width="389.000000pt" height="126.000000pt" viewBox="0 0 389.000000 126.000000"
 preserveAspectRatio="xMidYMid meet">

<g transform="translate(0.000000,126.000000) scale(0.100000,-0.100000)"
fill="#000000" stroke="none">
<path d="M1815 883 c-82 -43 -116 -102 -116 -199 0 -88 31 -149 96 -189 42
-26 58 -30 119 -29 58 0 78 5 111 26 63 40 66 47 63 135 l-3 78 -85 0 -85 0
-3 -37 -3 -38 50 0 c47 0 51 -2 51 -24 0 -34 -39 -56 -101 -56 -44 0 -55 4
-84 33 -88 88 -32 237 89 237 23 0 55 -9 72 -19 l32 -19 27 28 c32 34 27 45
-29 71 -52 23 -158 25 -201 2z"/>
<path d="M2150 685 l0 -215 40 0 40 0 0 215 0 215 -40 0 -40 0 0 -215z"/>
<path d="M3242 868 c-6 -18 -21 -61 -35 -95 -14 -34 -23 -64 -20 -66 9 -10 44
6 54 24 13 25 68 19 87 -10 16 -23 52 -29 52 -8 0 6 -16 50 -34 97 -31 78 -36
85 -64 88 -27 3 -32 -1 -40 -30z m46 -86 c-28 -5 -33 4 -18 35 l13 28 12 -30
c12 -27 12 -30 -7 -33z"/>
<path d="M3410 881 c0 -15 8 -21 35 -23 l34 -3 -39 -62 c-57 -88 -55 -95 27
-91 55 2 68 6 71 21 3 14 -4 17 -32 17 -20 0 -36 5 -36 10 0 6 16 34 35 63 52
77 49 87 -30 87 -58 0 -65 -2 -65 -19z"/>
<path d="M2384 787 c-52 -15 -76 -33 -103 -77 -43 -71 -18 -170 54 -218 26
-16 49 -22 93 -22 50 0 63 4 96 32 85 70 89 175 9 249 -25 24 -45 33 -93 44
-8 2 -33 -2 -56 -8z m92 -82 c34 -23 49 -69 34 -105 -26 -63 -87 -78 -139 -34
-84 70 16 202 105 139z"/>
<path d="M2744 781 c-18 -11 -34 -25 -37 -33 -3 -7 -6 -3 -6 10 -1 19 -6 22
-41 22 l-40 0 0 -155 0 -155 40 0 40 0 0 96 c0 92 1 97 29 125 16 16 39 29 51
29 18 0 21 5 18 37 -4 44 -14 49 -54 24z"/>
<path d="M3378 793 c6 -2 18 -2 25 0 6 3 1 5 -13 5 -14 0 -19 -2 -12 -5z"/>
<path d="M2821 768 c0 -7 19 -71 43 -143 42 -127 43 -131 27 -160 -14 -25 -24
-31 -60 -33 -41 -3 -42 -4 -39 -35 3 -31 4 -32 58 -35 72 -4 87 12 144 149 24
57 55 130 70 161 53 115 53 110 -1 106 l-48 -3 -31 -84 c-17 -46 -33 -80 -36
-75 -3 5 -16 44 -28 87 l-23 77 -38 0 c-25 0 -39 -5 -38 -12z"/>
<path d="M1420 313 c-39 -14 -53 -72 -26 -109 11 -14 27 -19 59 -19 l45 0 7
44 c6 41 4 48 -20 68 -26 23 -38 26 -65 16z m58 -25 c18 -18 14 -52 -8 -71
-36 -31 -70 -15 -70 33 0 31 17 50 45 50 12 0 26 -5 33 -12z"/>
<path d="M700 250 c0 -33 4 -60 10 -60 6 0 10 11 10 25 0 20 5 25 25 25 14 0
25 5 25 10 0 6 -11 10 -25 10 -18 0 -25 5 -25 19 0 15 8 21 38 24 34 3 33 4
-10 5 l-48 2 0 -60z"/>
<path d="M1090 244 c0 -41 4 -63 10 -59 6 3 10 22 10 41 0 27 4 34 20 34 17 0
20 -7 20 -41 0 -24 4 -38 10 -34 14 9 13 68 -2 83 -7 7 -20 12 -30 12 -10 0
-18 7 -18 15 0 8 -4 15 -10 15 -6 0 -10 -29 -10 -66z"/>
<path d="M1760 245 c0 -38 3 -65 6 -62 8 7 6 118 -1 125 -3 3 -5 -25 -5 -63z"/>
<path d="M1805 300 c4 -6 11 -8 16 -5 14 9 11 15 -7 15 -8 0 -12 -5 -9 -10z"/>
<path d="M1858 294 c-4 -59 8 -114 27 -114 8 0 15 5 15 10 0 6 -4 10 -10 10
-12 0 -13 52 -1 66 5 5 1 17 -10 28 -19 19 -19 19 -21 0z"/>
<path d="M2200 245 l0 -65 45 0 c25 0 45 5 45 10 0 6 -16 10 -35 10 -28 0 -35
4 -35 20 0 16 7 20 30 20 17 0 30 5 30 10 0 6 -13 10 -30 10 -23 0 -30 5 -30
19 0 15 8 21 38 24 34 3 33 4 -10 5 l-48 2 0 -65z"/>
<path d="M2770 295 c0 -10 -10 -15 -28 -15 -33 0 -52 -16 -52 -44 0 -35 17
-50 54 -51 l36 -2 0 64 c0 35 -2 63 -5 63 -3 0 -5 -7 -5 -15z m-2 -68 c-4 -33
-52 -31 -56 2 -2 13 2 27 9 32 20 12 51 -9 47 -34z"/>
<path d="M808 237 c-2 -21 0 -43 4 -50 4 -7 8 4 8 24 0 26 6 41 23 52 l22 16
-27 -2 c-23 -1 -27 -6 -30 -40z"/>
<path d="M878 254 c-19 -40 20 -86 58 -69 17 8 17 9 -6 13 -42 6 -47 22 -8 22
44 0 52 10 32 38 -21 31 -61 29 -76 -4z m62 1 c11 -13 8 -15 -19 -15 -31 0
-42 14 -18 23 20 9 24 8 37 -8z"/>
<path d="M997 273 c-14 -14 -6 -34 18 -45 14 -6 25 -16 25 -21 0 -5 -11 -7
-25 -5 -14 3 -25 2 -25 -3 0 -12 35 -20 54 -13 25 9 16 47 -12 54 -31 7 -28
26 4 23 13 -1 22 2 19 8 -7 10 -48 12 -58 2z"/>
<path d="M1544 235 l1 -50 35 0 c35 1 35 2 38 48 4 56 -15 65 -20 10 -2 -30
-7 -38 -23 -38 -16 0 -21 9 -26 40 -7 38 -7 38 -5 -10z"/>
<path d="M1654 269 c-5 -9 -2 -10 9 -6 20 7 47 -1 47 -14 0 -5 -14 -9 -30 -9
-36 0 -50 -24 -28 -46 10 -10 24 -13 42 -8 25 6 27 10 24 48 -3 36 -6 41 -30
44 -14 2 -30 -2 -34 -9z m54 -56 c2 -8 -6 -13 -22 -13 -17 0 -26 5 -26 16 0
19 41 16 48 -3z"/>
<path d="M1811 230 l1 -55 10 44 c7 30 6 47 -1 54 -8 8 -11 -4 -10 -43z"/>
<path d="M1920 278 c0 -4 7 -29 16 -55 15 -44 15 -48 -2 -60 -15 -11 -15 -13
-2 -13 8 0 20 6 25 13 17 20 46 107 39 114 -3 3 -11 -8 -17 -25 -11 -32 -29
-44 -29 -19 0 14 -29 58 -30 45z"/>
<path d="M2314 264 c3 -9 6 -22 6 -29 0 -7 9 -23 19 -36 l19 -24 21 48 c24 55
24 57 12 57 -5 0 -16 -17 -24 -37 l-15 -38 -15 38 c-15 35 -36 55 -23 21z"/>
<path d="M2422 268 c-17 -17 -15 -54 4 -72 17 -18 50 -21 59 -6 4 6 -7 10 -24
10 -17 0 -31 5 -31 10 0 6 16 10 35 10 27 0 35 4 35 18 0 24 -19 42 -45 42
-12 0 -26 -5 -33 -12z m58 -19 c0 -5 -11 -9 -25 -9 -26 0 -34 15 -12 23 16 5
37 -3 37 -14z"/>
<path d="M2532 225 c1 -40 2 -43 5 -15 3 20 13 42 26 52 l22 18 -27 -2 c-27
-2 -28 -5 -26 -53z"/>
<path d="M2594 268 c24 -60 29 -90 16 -98 -8 -5 -11 -12 -8 -15 12 -12 29 6
49 52 25 58 24 89 -1 43 l-19 -35 -13 33 c-7 17 -16 32 -21 32 -5 0 -6 -6 -3
-12z"/>
<path d="M2815 269 c-4 -6 3 -9 21 -7 15 2 29 -2 31 -9 2 -7 -8 -13 -24 -15
-22 -2 -28 -8 -28 -28 0 -22 5 -25 38 -27 36 -1 37 0 37 36 0 20 -5 42 -12 49
-15 15 -55 16 -63 1z m55 -54 c0 -8 -9 -15 -20 -15 -11 0 -20 7 -20 15 0 8 9
15 20 15 11 0 20 -7 20 -15z"/>
<path d="M2910 274 c0 -6 7 -28 16 -49 15 -38 12 -71 -6 -60 -5 3 -10 1 -10
-4 0 -15 25 -14 37 2 17 20 46 107 39 114 -3 3 -11 -8 -17 -25 -11 -32 -29
-44 -29 -19 0 16 -29 56 -30 41z"/>
<path d="M1267 264 c-16 -16 -7 -44 14 -44 15 0 20 5 17 22 -3 22 -19 33 -31
22z"/>
<path d="M2080 242 c0 -24 8 -32 26 -25 22 8 17 43 -6 43 -13 0 -20 -7 -20
-18z"/>
</g>
</svg>
